@startuml
'https://plantuml.com/class-diagram

hide circle
allowmixing

class Gateway <<domain>> <<service>> {
  appMasterKey <<secret>>
}

Gateway *-- "*" Account

class Account <<abstract>> <<subject>> {
  timesheet : Timesheet [*]
  project : Project [*]
}
note right of Account::timesheet
  inverse injection: a Timesheet
  can only appear in one Account
end note
note right of Account::project
  inverse injection: a Project
  can only appear in one Account
end note

Account "provider" *--> "*" Timesheet

Account "client" *--> "*" Project

class UserAccount <<subject>> {
  email : string [1..*]
  key : UserKey [*]
}
note right of UserAccount::email
  Registered email, used
  for account activation
end note
UserAccount --|> Account

class OrganisationAccount <<subject>> {
  vf:primaryAccountable : UserAccount [1..*]
}
note right of OrganisationAccount::vf:primaryAccountable
  The account "admins"
end note
OrganisationAccount --|> Account
OrganisationAccount o-- "1..*" UserAccount

class Timesheet <<domain>> <<subject>> {
  //account<sub>p</sub> : Account//
  project : Project [*]
}
note left of Timesheet
  a subject in the
  Gateway domain;
  also a domain shared to
  authorised CLI clients
end note
note right of Timesheet::account
  entailed from
  Account.timesheet
end note
note right of Timesheet::project
  Can only be set by
  account admin
end note

class Project <<subject>> {
}
note right of Project
  **entailed __read__ access to a timesheet**
  (via Gateway export/publish)

  the user account must be the timesheet provider
  //or// the client of a project that contains the timesheet

  account<sub>u</sub> ∈
    account<sub>p</sub>.vf:primaryAccountable
  ∨
  ∃account<sub>c</sub>:Account ⦁
    account<sub>u</sub> ∈
      account<sub>c</sub>.vf:primaryAccountable
    ∧
    ∃project:Project ⦁
      project ∈ account<sub>c</sub>.project ∧
      project ∈ timesheet.project
end note

Project "*" -- "*" Timesheet

class CLI {
  <<secret>> key : AuthKey
  userKey : UserKey
  account<sub>u</sub>
  timesheets : domain [*]
}
note left of CLI
  Installed on a device
  under an OS account.
  Registered to user account
  via keyid.
end note

UserKey .. CLI

CLI ..> "*" Timesheet
note bottom on link
  **entailed __read and write__ access**
  (via the CLI)

  the user account must be the timesheet provider

  account<sub>u</sub> ∈
    account<sub>p</sub>.vf:primaryAccountable
end note

class UserKey <<subject>> {
  @id = """.${keyid}" ""
  name? : string
  publicKey : base64Binary
  privateKey : base64Binary
  revoked? : boolean
}
note right of UserKey::name
  account<sub>u</sub>@≪gateway≫
  Not present in config
end note
note right of UserKey::privateKey
  Encrypted with AuthKey
end note
note right of UserKey::revoked
  possibly redundant
  with external keystore
  Assumed ""true"" in config
end note

UserAccount "1" *-- "*" UserKey

class AuthKey {
  keyid : string
  appid : string
  secret : string
}
note right of AuthKey
  String-serialised "API key"
  Usable with Basic HTTP auth
end note
CLI - AuthKey

@enduml